<?xml version='1.0' encoding='utf-8'?>
<svg xmlns="http://www.w3.org/2000/svg" version="1.1" viewBox="0 0 1200 600">
  <line x1="80" y1="450" x2="1120" y2="450" stroke="black" stroke-width="2" />
  <line x1="80" y1="50" x2="80" y2="450" stroke="black" stroke-width="2" />
  <text x="600" y="490" font-family="Verdana" font-size="25" style="text-anchor: middle;">Distancia [m]</text>
  <text x="30" y="250" font-family="Verdana" font-size="25" style="writing-mode: tb; glyph-orientation-vertical: 0;">Altura [m]</text>
  <text x="600" y="50" font-family="Verdana" font-size="30" style="text-anchor: middle; fill: blue;">Perfil altimétrico MotorLand Aragón</text>
  <text x="80.0" y="470" font-family="Verdana" font-size="15" style="text-anchor: middle;">0</text>
  <line x1="80.0" y1="450" x2="80.0" y2="458" stroke="black" stroke-width="1" />
  <text x="182.16110019646365" y="470" font-family="Verdana" font-size="15" style="text-anchor: middle;">500</text>
  <line x1="182.16110019646365" y1="450" x2="182.16110019646365" y2="458" stroke="black" stroke-width="1" />
  <text x="284.3222003929273" y="470" font-family="Verdana" font-size="15" style="text-anchor: middle;">1000</text>
  <line x1="284.3222003929273" y1="450" x2="284.3222003929273" y2="458" stroke="black" stroke-width="1" />
  <text x="386.483300589391" y="470" font-family="Verdana" font-size="15" style="text-anchor: middle;">1500</text>
  <line x1="386.483300589391" y1="450" x2="386.483300589391" y2="458" stroke="black" stroke-width="1" />
  <text x="488.6444007858546" y="470" font-family="Verdana" font-size="15" style="text-anchor: middle;">2000</text>
  <line x1="488.6444007858546" y1="450" x2="488.6444007858546" y2="458" stroke="black" stroke-width="1" />
  <text x="590.8055009823183" y="470" font-family="Verdana" font-size="15" style="text-anchor: middle;">2500</text>
  <line x1="590.8055009823183" y1="450" x2="590.8055009823183" y2="458" stroke="black" stroke-width="1" />
  <text x="692.966601178782" y="470" font-family="Verdana" font-size="15" style="text-anchor: middle;">3000</text>
  <line x1="692.966601178782" y1="450" x2="692.966601178782" y2="458" stroke="black" stroke-width="1" />
  <text x="795.1277013752456" y="470" font-family="Verdana" font-size="15" style="text-anchor: middle;">3500</text>
  <line x1="795.1277013752456" y1="450" x2="795.1277013752456" y2="458" stroke="black" stroke-width="1" />
  <text x="897.2888015717092" y="470" font-family="Verdana" font-size="15" style="text-anchor: middle;">4000</text>
  <line x1="897.2888015717092" y1="450" x2="897.2888015717092" y2="458" stroke="black" stroke-width="1" />
  <text x="999.4499017681728" y="470" font-family="Verdana" font-size="15" style="text-anchor: middle;">4500</text>
  <line x1="999.4499017681728" y1="450" x2="999.4499017681728" y2="458" stroke="black" stroke-width="1" />
  <text x="1101.6110019646367" y="470" font-family="Verdana" font-size="15" style="text-anchor: middle;">5000</text>
  <line x1="1101.6110019646367" y1="450" x2="1101.6110019646367" y2="458" stroke="black" stroke-width="1" />
  <text x="65" y="455.0" font-family="Verdana" font-size="15" style="text-anchor: middle;">357</text>
  <line x1="80" y1="450.0" x2="72" y2="450.0" stroke="black" stroke-width="1" />
  <text x="65" y="368.04347826086956" font-family="Verdana" font-size="15" style="text-anchor: middle;">367</text>
  <line x1="80" y1="363.04347826086956" x2="72" y2="363.04347826086956" stroke="black" stroke-width="1" />
  <text x="65" y="281.0869565217391" font-family="Verdana" font-size="15" style="text-anchor: middle;">377</text>
  <line x1="80" y1="276.0869565217391" x2="72" y2="276.0869565217391" stroke="black" stroke-width="1" />
  <text x="65" y="194.1304347826087" font-family="Verdana" font-size="15" style="text-anchor: middle;">387</text>
  <line x1="80" y1="189.1304347826087" x2="72" y2="189.1304347826087" stroke="black" stroke-width="1" />
  <text x="65" y="107.17391304347825" font-family="Verdana" font-size="15" style="text-anchor: middle;">397</text>
  <line x1="80" y1="102.17391304347825" x2="72" y2="102.17391304347825" stroke="black" stroke-width="1" />
  <polyline points="80.00,345.65 133.94,328.26 168.68,319.57 184.20,293.48 224.86,223.91 283.10,110.87 300.67,93.48 314.97,76.09 357.88,58.70 390.57,50.00 402.83,50.00 470.26,84.78 490.69,128.26 511.12,180.43 533.60,206.52 554.03,206.52 592.85,171.74 641.89,136.96 674.58,154.35 705.23,163.04 731.79,189.13 758.35,241.30 776.74,267.39 989.23,450.00 1007.62,432.61 1030.10,406.52 1046.44,380.43 1120.00,345.65" stroke="blue" stroke-width="4" fill="none" />
</svg>