<?xml version="1.0" encoding="utf-8"?><svg width="auto" height="3870" style="overflow:visible " version="1.1" xmlns="http://www.w3.org/2000/svg"><rect x="20" y="20" width="200" height="40" style="fill:white;stroke:black;stroke-width:1" /><text x="30" y="30" font-size="10" style="fill:blue">xs:schema</text><text x="30" y="40" font-size="8" style="fill:black">xmlns:xs: http://www.w3.org/2001/XMLSchema</text><text x="30" y="50" font-size="8" style="fill:black">targetNamespace: http://www.uniovi.es</text><text x="30" y="60" font-size="8" style="fill:black">xmlns: http://www.uniovi.es</text><text x="30" y="70" font-size="8" style="fill:black">elementFormDefault: qualified</text><rect x="240" y="20" width="200" height="40" style="fill:white;stroke:black;stroke-width:1" /><text x="250" y="30" font-size="10" style="fill:blue">xs:element</text><path d="M220 40 C240 40 220 40 240 40" style="fill:transparent;stroke:black" /><text x="250" y="40" font-size="8" style="fill:black">name: circuito</text><rect x="460" y="20" width="200" height="40" style="fill:white;stroke:black;stroke-width:1" /><text x="470" y="30" font-size="10" style="fill:blue">xs:complexType</text><path d="M440 40 C460 40 440 40 460 40" style="fill:transparent;stroke:black" /><rect x="680" y="20" width="200" height="40" style="fill:white;stroke:black;stroke-width:1" /><text x="690" y="30" font-size="10" style="fill:blue">xs:sequence</text><path d="M660 40 C680 40 660 40 680 40" style="fill:transparent;stroke:black" /><rect x="900" y="20" width="200" height="40" style="fill:white;stroke:black;stroke-width:1" /><text x="910" y="30" font-size="10" style="fill:blue">xs:element</text><path d="M880 40 C900 40 880 40 900 40" style="fill:transparent;stroke:black" /><text x="910" y="40" font-size="8" style="fill:black">name: nombre</text><text x="910" y="50" font-size="8" style="fill:black">type: xs:string</text><rect x="900" y="70" width="200" height="40" style="fill:white;stroke:black;stroke-width:1" /><text x="910" y="80" font-size="10" style="fill:blue">xs:element</text><path d="M880 40 C900 40 880 90 900 90" style="fill:transparent;stroke:black" /><text x="910" y="90" font-size="8" style="fill:black">name: longitud</text><rect x="1120" y="70" width="200" height="40" style="fill:white;stroke:black;stroke-width:1" /><text x="1130" y="80" font-size="10" style="fill:blue">xs:complexType</text><path d="M1100 90 C1120 90 1100 90 1120 90" style="fill:transparent;stroke:black" /><rect x="1340" y="70" width="200" height="40" style="fill:white;stroke:black;stroke-width:1" /><text x="1350" y="80" font-size="10" style="fill:blue">xs:simpleContent</text><path d="M1320 90 C1340 90 1320 90 1340 90" style="fill:transparent;stroke:black" /><rect x="1560" y="70" width="200" height="40" style="fill:white;stroke:black;stroke-width:1" /><text x="1570" y="80" font-size="10" style="fill:blue">xs:extension</text><path d="M1540 90 C1560 90 1540 90 1560 90" style="fill:transparent;stroke:black" /><text x="1570" y="90" font-size="8" style="fill:black">base: xs:float</text><rect x="1780" y="70" width="200" height="40" style="fill:white;stroke:black;stroke-width:1" /><text x="1790" y="80" font-size="10" style="fill:blue">xs:attribute</text><path d="M1760 90 C1780 90 1760 90 1780 90" style="fill:transparent;stroke:black" /><text x="1790" y="90" font-size="8" style="fill:black">name: unidad</text><text x="1790" y="100" font-size="8" style="fill:black">type: xs:string</text><text x="1790" y="110" font-size="8" style="fill:black">use: required</text><rect x="900" y="320" width="200" height="40" style="fill:white;stroke:black;stroke-width:1" /><text x="910" y="330" font-size="10" style="fill:blue">xs:element</text><path d="M880 40 C900 40 880 340 900 340" style="fill:transparent;stroke:black" /><text x="910" y="340" font-size="8" style="fill:black">name: anchura_media</text><rect x="1120" y="320" width="200" height="40" style="fill:white;stroke:black;stroke-width:1" /><text x="1130" y="330" font-size="10" style="fill:blue">xs:complexType</text><path d="M1100 340 C1120 340 1100 340 1120 340" style="fill:transparent;stroke:black" /><rect x="1340" y="320" width="200" height="40" style="fill:white;stroke:black;stroke-width:1" /><text x="1350" y="330" font-size="10" style="fill:blue">xs:simpleContent</text><path d="M1320 340 C1340 340 1320 340 1340 340" style="fill:transparent;stroke:black" /><rect x="1560" y="320" width="200" height="40" style="fill:white;stroke:black;stroke-width:1" /><text x="1570" y="330" font-size="10" style="fill:blue">xs:extension</text><path d="M1540 340 C1560 340 1540 340 1560 340" style="fill:transparent;stroke:black" /><text x="1570" y="340" font-size="8" style="fill:black">base: xs:float</text><rect x="1780" y="320" width="200" height="40" style="fill:white;stroke:black;stroke-width:1" /><text x="1790" y="330" font-size="10" style="fill:blue">xs:attribute</text><path d="M1760 340 C1780 340 1760 340 1780 340" style="fill:transparent;stroke:black" /><text x="1790" y="340" font-size="8" style="fill:black">name: unidad</text><text x="1790" y="350" font-size="8" style="fill:black">type: xs:string</text><text x="1790" y="360" font-size="8" style="fill:black">use: required</text><rect x="900" y="570" width="200" height="40" style="fill:white;stroke:black;stroke-width:1" /><text x="910" y="580" font-size="10" style="fill:blue">xs:element</text><path d="M880 40 C900 40 880 590 900 590" style="fill:transparent;stroke:black" /><text x="910" y="590" font-size="8" style="fill:black">name: fecha</text><text x="910" y="600" font-size="8" style="fill:black">type: xs:date</text><rect x="900" y="620" width="200" height="40" style="fill:white;stroke:black;stroke-width:1" /><text x="910" y="630" font-size="10" style="fill:blue">xs:element</text><path d="M880 40 C900 40 880 640 900 640" style="fill:transparent;stroke:black" /><text x="910" y="640" font-size="8" style="fill:black">name: hora_inicio</text><text x="910" y="650" font-size="8" style="fill:black">type: xs:time</text><rect x="900" y="670" width="200" height="40" style="fill:white;stroke:black;stroke-width:1" /><text x="910" y="680" font-size="10" style="fill:blue">xs:element</text><path d="M880 40 C900 40 880 690 900 690" style="fill:transparent;stroke:black" /><text x="910" y="690" font-size="8" style="fill:black">name: vueltas</text><text x="910" y="700" font-size="8" style="fill:black">type: xs:integer</text><rect x="900" y="720" width="200" height="40" style="fill:white;stroke:black;stroke-width:1" /><text x="910" y="730" font-size="10" style="fill:blue">xs:element</text><path d="M880 40 C900 40 880 740 900 740" style="fill:transparent;stroke:black" /><text x="910" y="740" font-size="8" style="fill:black">name: localidad</text><text x="910" y="750" font-size="8" style="fill:black">type: xs:string</text><rect x="900" y="770" width="200" height="40" style="fill:white;stroke:black;stroke-width:1" /><text x="910" y="780" font-size="10" style="fill:blue">xs:element</text><path d="M880 40 C900 40 880 790 900 790" style="fill:transparent;stroke:black" /><text x="910" y="790" font-size="8" style="fill:black">name: pais</text><text x="910" y="800" font-size="8" style="fill:black">type: xs:string</text><rect x="900" y="820" width="200" height="40" style="fill:white;stroke:black;stroke-width:1" /><text x="910" y="830" font-size="10" style="fill:blue">xs:element</text><path d="M880 40 C900 40 880 840 900 840" style="fill:transparent;stroke:black" /><text x="910" y="840" font-size="8" style="fill:black">name: patrocinador</text><text x="910" y="850" font-size="8" style="fill:black">type: xs:string</text><rect x="900" y="870" width="200" height="40" style="fill:white;stroke:black;stroke-width:1" /><text x="910" y="880" font-size="10" style="fill:blue">xs:element</text><path d="M880 40 C900 40 880 890 900 890" style="fill:transparent;stroke:black" /><text x="910" y="890" font-size="8" style="fill:black">name: referencias</text><rect x="1120" y="870" width="200" height="40" style="fill:white;stroke:black;stroke-width:1" /><text x="1130" y="880" font-size="10" style="fill:blue">xs:complexType</text><path d="M1100 890 C1120 890 1100 890 1120 890" style="fill:transparent;stroke:black" /><rect x="1340" y="870" width="200" height="40" style="fill:white;stroke:black;stroke-width:1" /><text x="1350" y="880" font-size="10" style="fill:blue">xs:sequence</text><path d="M1320 890 C1340 890 1320 890 1340 890" style="fill:transparent;stroke:black" /><rect x="1560" y="870" width="200" height="40" style="fill:white;stroke:black;stroke-width:1" /><text x="1570" y="880" font-size="10" style="fill:blue">xs:element</text><path d="M1540 890 C1560 890 1540 890 1560 890" style="fill:transparent;stroke:black" /><text x="1570" y="890" font-size="8" style="fill:black">name: referencia</text><text x="1570" y="900" font-size="8" style="fill:black">type: xs:string</text><text x="1570" y="910" font-size="8" style="fill:black">minOccurs: 3</text><text x="1570" y="920" font-size="8" style="fill:black">maxOccurs: unbounded</text><rect x="900" y="1070" width="200" height="40" style="fill:white;stroke:black;stroke-width:1" /><text x="910" y="1080" font-size="10" style="fill:blue">xs:element</text><path d="M880 40 C900 40 880 1090 900 1090" style="fill:transparent;stroke:black" /><text x="910" y="1090" font-size="8" style="fill:black">name: galeria_fotos</text><rect x="1120" y="1070" width="200" height="40" style="fill:white;stroke:black;stroke-width:1" /><text x="1130" y="1080" font-size="10" style="fill:blue">xs:complexType</text><path d="M1100 1090 C1120 1090 1100 1090 1120 1090" style="fill:transparent;stroke:black" /><rect x="1340" y="1070" width="200" height="40" style="fill:white;stroke:black;stroke-width:1" /><text x="1350" y="1080" font-size="10" style="fill:blue">xs:sequence</text><path d="M1320 1090 C1340 1090 1320 1090 1340 1090" style="fill:transparent;stroke:black" /><rect x="1560" y="1070" width="200" height="40" style="fill:white;stroke:black;stroke-width:1" /><text x="1570" y="1080" font-size="10" style="fill:blue">xs:element</text><path d="M1540 1090 C1560 1090 1540 1090 1560 1090" style="fill:transparent;stroke:black" /><text x="1570" y="1090" font-size="8" style="fill:black">name: foto</text><text x="1570" y="1100" font-size="8" style="fill:black">minOccurs: 1</text><text x="1570" y="1110" font-size="8" style="fill:black">maxOccurs: 5</text><rect x="1780" y="1070" width="200" height="40" style="fill:white;stroke:black;stroke-width:1" /><text x="1790" y="1080" font-size="10" style="fill:blue">xs:complexType</text><path d="M1760 1090 C1780 1090 1760 1090 1780 1090" style="fill:transparent;stroke:black" /><rect x="2000" y="1070" width="200" height="40" style="fill:white;stroke:black;stroke-width:1" /><text x="2010" y="1080" font-size="10" style="fill:blue">xs:attribute</text><path d="M1980 1090 C2000 1090 1980 1090 2000 1090" style="fill:transparent;stroke:black" /><text x="2010" y="1090" font-size="8" style="fill:black">name: url</text><text x="2010" y="1100" font-size="8" style="fill:black">type: xs:string</text><text x="2010" y="1110" font-size="8" style="fill:black">use: required</text><rect x="900" y="1370" width="200" height="40" style="fill:white;stroke:black;stroke-width:1" /><text x="910" y="1380" font-size="10" style="fill:blue">xs:element</text><path d="M880 40 C900 40 880 1390 900 1390" style="fill:transparent;stroke:black" /><text x="910" y="1390" font-size="8" style="fill:black">name: galeria_videos</text><rect x="1120" y="1370" width="200" height="40" style="fill:white;stroke:black;stroke-width:1" /><text x="1130" y="1380" font-size="10" style="fill:blue">xs:complexType</text><path d="M1100 1390 C1120 1390 1100 1390 1120 1390" style="fill:transparent;stroke:black" /><rect x="1340" y="1370" width="200" height="40" style="fill:white;stroke:black;stroke-width:1" /><text x="1350" y="1380" font-size="10" style="fill:blue">xs:sequence</text><path d="M1320 1390 C1340 1390 1320 1390 1340 1390" style="fill:transparent;stroke:black" /><rect x="1560" y="1370" width="200" height="40" style="fill:white;stroke:black;stroke-width:1" /><text x="1570" y="1380" font-size="10" style="fill:blue">xs:element</text><path d="M1540 1390 C1560 1390 1540 1390 1560 1390" style="fill:transparent;stroke:black" /><text x="1570" y="1390" font-size="8" style="fill:black">name: video</text><text x="1570" y="1400" font-size="8" style="fill:black">minOccurs: 1</text><text x="1570" y="1410" font-size="8" style="fill:black">maxOccurs: 3</text><rect x="1780" y="1370" width="200" height="40" style="fill:white;stroke:black;stroke-width:1" /><text x="1790" y="1380" font-size="10" style="fill:blue">xs:complexType</text><path d="M1760 1390 C1780 1390 1760 1390 1780 1390" style="fill:transparent;stroke:black" /><rect x="2000" y="1370" width="200" height="40" style="fill:white;stroke:black;stroke-width:1" /><text x="2010" y="1380" font-size="10" style="fill:blue">xs:attribute</text><path d="M1980 1390 C2000 1390 1980 1390 2000 1390" style="fill:transparent;stroke:black" /><text x="2010" y="1390" font-size="8" style="fill:black">name: url</text><text x="2010" y="1400" font-size="8" style="fill:black">type: xs:string</text><text x="2010" y="1410" font-size="8" style="fill:black">use: required</text><rect x="900" y="1670" width="200" height="40" style="fill:white;stroke:black;stroke-width:1" /><text x="910" y="1680" font-size="10" style="fill:blue">xs:element</text><path d="M880 40 C900 40 880 1690 900 1690" style="fill:transparent;stroke:black" /><text x="910" y="1690" font-size="8" style="fill:black">name: origen</text><rect x="1120" y="1670" width="200" height="40" style="fill:white;stroke:black;stroke-width:1" /><text x="1130" y="1680" font-size="10" style="fill:blue">xs:complexType</text><path d="M1100 1690 C1120 1690 1100 1690 1120 1690" style="fill:transparent;stroke:black" /><rect x="1340" y="1670" width="200" height="40" style="fill:white;stroke:black;stroke-width:1" /><text x="1350" y="1680" font-size="10" style="fill:blue">xs:sequence</text><path d="M1320 1690 C1340 1690 1320 1690 1340 1690" style="fill:transparent;stroke:black" /><rect x="1560" y="1670" width="200" height="40" style="fill:white;stroke:black;stroke-width:1" /><text x="1570" y="1680" font-size="10" style="fill:blue">xs:element</text><path d="M1540 1690 C1560 1690 1540 1690 1560 1690" style="fill:transparent;stroke:black" /><text x="1570" y="1690" font-size="8" style="fill:black">name: coordenadas</text><rect x="1780" y="1670" width="200" height="40" style="fill:white;stroke:black;stroke-width:1" /><text x="1790" y="1680" font-size="10" style="fill:blue">xs:complexType</text><path d="M1760 1690 C1780 1690 1760 1690 1780 1690" style="fill:transparent;stroke:black" /><rect x="2000" y="1670" width="200" height="40" style="fill:white;stroke:black;stroke-width:1" /><text x="2010" y="1680" font-size="10" style="fill:blue">xs:sequence</text><path d="M1980 1690 C2000 1690 1980 1690 2000 1690" style="fill:transparent;stroke:black" /><rect x="2220" y="1670" width="200" height="40" style="fill:white;stroke:black;stroke-width:1" /><text x="2230" y="1680" font-size="10" style="fill:blue">xs:element</text><path d="M2200 1690 C2220 1690 2200 1690 2220 1690" style="fill:transparent;stroke:black" /><text x="2230" y="1690" font-size="8" style="fill:black">name: lon</text><text x="2230" y="1700" font-size="8" style="fill:black">type: xs:float</text><rect x="2220" y="1720" width="200" height="40" style="fill:white;stroke:black;stroke-width:1" /><text x="2230" y="1730" font-size="10" style="fill:blue">xs:element</text><path d="M2200 1690 C2220 1690 2200 1740 2220 1740" style="fill:transparent;stroke:black" /><text x="2230" y="1740" font-size="8" style="fill:black">name: lat</text><text x="2230" y="1750" font-size="8" style="fill:black">type: xs:float</text><rect x="2220" y="1770" width="200" height="40" style="fill:white;stroke:black;stroke-width:1" /><text x="2230" y="1780" font-size="10" style="fill:blue">xs:element</text><path d="M2200 1690 C2220 1690 2200 1790 2220 1790" style="fill:transparent;stroke:black" /><text x="2230" y="1790" font-size="8" style="fill:black">name: alt</text><text x="2230" y="1800" font-size="8" style="fill:black">type: xs:float</text><rect x="900" y="2120" width="200" height="40" style="fill:white;stroke:black;stroke-width:1" /><text x="910" y="2130" font-size="10" style="fill:blue">xs:element</text><path d="M880 40 C900 40 880 2140 900 2140" style="fill:transparent;stroke:black" /><text x="910" y="2140" font-size="8" style="fill:black">name: tramos</text><rect x="1120" y="2120" width="200" height="40" style="fill:white;stroke:black;stroke-width:1" /><text x="1130" y="2130" font-size="10" style="fill:blue">xs:complexType</text><path d="M1100 2140 C1120 2140 1100 2140 1120 2140" style="fill:transparent;stroke:black" /><rect x="1340" y="2120" width="200" height="40" style="fill:white;stroke:black;stroke-width:1" /><text x="1350" y="2130" font-size="10" style="fill:blue">xs:sequence</text><path d="M1320 2140 C1340 2140 1320 2140 1340 2140" style="fill:transparent;stroke:black" /><rect x="1560" y="2120" width="200" height="40" style="fill:white;stroke:black;stroke-width:1" /><text x="1570" y="2130" font-size="10" style="fill:blue">xs:element</text><path d="M1540 2140 C1560 2140 1540 2140 1560 2140" style="fill:transparent;stroke:black" /><text x="1570" y="2140" font-size="8" style="fill:black">name: tramo</text><text x="1570" y="2150" font-size="8" style="fill:black">maxOccurs: unbounded</text><rect x="1780" y="2120" width="200" height="40" style="fill:white;stroke:black;stroke-width:1" /><text x="1790" y="2130" font-size="10" style="fill:blue">xs:complexType</text><path d="M1760 2140 C1780 2140 1760 2140 1780 2140" style="fill:transparent;stroke:black" /><rect x="2000" y="2120" width="200" height="40" style="fill:white;stroke:black;stroke-width:1" /><text x="2010" y="2130" font-size="10" style="fill:blue">xs:sequence</text><path d="M1980 2140 C2000 2140 1980 2140 2000 2140" style="fill:transparent;stroke:black" /><rect x="2220" y="2120" width="200" height="40" style="fill:white;stroke:black;stroke-width:1" /><text x="2230" y="2130" font-size="10" style="fill:blue">xs:element</text><path d="M2200 2140 C2220 2140 2200 2140 2220 2140" style="fill:transparent;stroke:black" /><text x="2230" y="2140" font-size="8" style="fill:black">name: distancia</text><rect x="2440" y="2120" width="200" height="40" style="fill:white;stroke:black;stroke-width:1" /><text x="2450" y="2130" font-size="10" style="fill:blue">xs:complexType</text><path d="M2420 2140 C2440 2140 2420 2140 2440 2140" style="fill:transparent;stroke:black" /><rect x="2660" y="2120" width="200" height="40" style="fill:white;stroke:black;stroke-width:1" /><text x="2670" y="2130" font-size="10" style="fill:blue">xs:simpleContent</text><path d="M2640 2140 C2660 2140 2640 2140 2660 2140" style="fill:transparent;stroke:black" /><rect x="2880" y="2120" width="200" height="40" style="fill:white;stroke:black;stroke-width:1" /><text x="2890" y="2130" font-size="10" style="fill:blue">xs:extension</text><path d="M2860 2140 C2880 2140 2860 2140 2880 2140" style="fill:transparent;stroke:black" /><text x="2890" y="2140" font-size="8" style="fill:black">base: xs:float</text><rect x="3100" y="2120" width="200" height="40" style="fill:white;stroke:black;stroke-width:1" /><text x="3110" y="2130" font-size="10" style="fill:blue">xs:attribute</text><path d="M3080 2140 C3100 2140 3080 2140 3100 2140" style="fill:transparent;stroke:black" /><text x="3110" y="2140" font-size="8" style="fill:black">name: unidad</text><text x="3110" y="2150" font-size="8" style="fill:black">type: xs:string</text><text x="3110" y="2160" font-size="8" style="fill:black">use: required</text><rect x="2220" y="2370" width="200" height="40" style="fill:white;stroke:black;stroke-width:1" /><text x="2230" y="2380" font-size="10" style="fill:blue">xs:element</text><path d="M2200 2140 C2220 2140 2200 2390 2220 2390" style="fill:transparent;stroke:black" /><text x="2230" y="2390" font-size="8" style="fill:black">name: coordenadas</text><rect x="2440" y="2370" width="200" height="40" style="fill:white;stroke:black;stroke-width:1" /><text x="2450" y="2380" font-size="10" style="fill:blue">xs:complexType</text><path d="M2420 2390 C2440 2390 2420 2390 2440 2390" style="fill:transparent;stroke:black" /><rect x="2660" y="2370" width="200" height="40" style="fill:white;stroke:black;stroke-width:1" /><text x="2670" y="2380" font-size="10" style="fill:blue">xs:sequence</text><path d="M2640 2390 C2660 2390 2640 2390 2660 2390" style="fill:transparent;stroke:black" /><rect x="2880" y="2370" width="200" height="40" style="fill:white;stroke:black;stroke-width:1" /><text x="2890" y="2380" font-size="10" style="fill:blue">xs:element</text><path d="M2860 2390 C2880 2390 2860 2390 2880 2390" style="fill:transparent;stroke:black" /><text x="2890" y="2390" font-size="8" style="fill:black">name: lon</text><text x="2890" y="2400" font-size="8" style="fill:black">type: xs:float</text><rect x="2880" y="2420" width="200" height="40" style="fill:white;stroke:black;stroke-width:1" /><text x="2890" y="2430" font-size="10" style="fill:blue">xs:element</text><path d="M2860 2390 C2880 2390 2860 2440 2880 2440" style="fill:transparent;stroke:black" /><text x="2890" y="2440" font-size="8" style="fill:black">name: lat</text><text x="2890" y="2450" font-size="8" style="fill:black">type: xs:float</text><rect x="2880" y="2470" width="200" height="40" style="fill:white;stroke:black;stroke-width:1" /><text x="2890" y="2480" font-size="10" style="fill:blue">xs:element</text><path d="M2860 2390 C2880 2390 2860 2490 2880 2490" style="fill:transparent;stroke:black" /><text x="2890" y="2490" font-size="8" style="fill:black">name: alt</text><text x="2890" y="2500" font-size="8" style="fill:black">type: xs:float</text><rect x="2000" y="2720" width="200" height="40" style="fill:white;stroke:black;stroke-width:1" /><text x="2010" y="2730" font-size="10" style="fill:blue">xs:attribute</text><path d="M1980 2140 C2000 2140 1980 2740 2000 2740" style="fill:transparent;stroke:black" /><text x="2010" y="2740" font-size="8" style="fill:black">name: sector</text><text x="2010" y="2750" font-size="8" style="fill:black">type: xs:string</text><text x="2010" y="2760" font-size="8" style="fill:black">use: required</text><rect x="900" y="3020" width="200" height="40" style="fill:white;stroke:black;stroke-width:1" /><text x="910" y="3030" font-size="10" style="fill:blue">xs:element</text><path d="M880 40 C900 40 880 3040 900 3040" style="fill:transparent;stroke:black" /><text x="910" y="3040" font-size="8" style="fill:black">name: vencedor</text><rect x="1120" y="3020" width="200" height="40" style="fill:white;stroke:black;stroke-width:1" /><text x="1130" y="3030" font-size="10" style="fill:blue">xs:complexType</text><path d="M1100 3040 C1120 3040 1100 3040 1120 3040" style="fill:transparent;stroke:black" /><rect x="1340" y="3020" width="200" height="40" style="fill:white;stroke:black;stroke-width:1" /><text x="1350" y="3030" font-size="10" style="fill:blue">xs:sequence</text><path d="M1320 3040 C1340 3040 1320 3040 1340 3040" style="fill:transparent;stroke:black" /><rect x="1560" y="3020" width="200" height="40" style="fill:white;stroke:black;stroke-width:1" /><text x="1570" y="3030" font-size="10" style="fill:blue">xs:element</text><path d="M1540 3040 C1560 3040 1540 3040 1560 3040" style="fill:transparent;stroke:black" /><text x="1570" y="3040" font-size="8" style="fill:black">name: nombre</text><text x="1570" y="3050" font-size="8" style="fill:black">type: xs:string</text><rect x="1560" y="3070" width="200" height="40" style="fill:white;stroke:black;stroke-width:1" /><text x="1570" y="3080" font-size="10" style="fill:blue">xs:element</text><path d="M1540 3040 C1560 3040 1540 3090 1560 3090" style="fill:transparent;stroke:black" /><text x="1570" y="3090" font-size="8" style="fill:black">name: tiempo_carrera</text><text x="1570" y="3100" font-size="8" style="fill:black">type: xs:string</text><rect x="900" y="3270" width="200" height="40" style="fill:white;stroke:black;stroke-width:1" /><text x="910" y="3280" font-size="10" style="fill:blue">xs:element</text><path d="M880 40 C900 40 880 3290 900 3290" style="fill:transparent;stroke:black" /><text x="910" y="3290" font-size="8" style="fill:black">name: clasificados</text><rect x="1120" y="3270" width="200" height="40" style="fill:white;stroke:black;stroke-width:1" /><text x="1130" y="3280" font-size="10" style="fill:blue">xs:complexType</text><path d="M1100 3290 C1120 3290 1100 3290 1120 3290" style="fill:transparent;stroke:black" /><rect x="1340" y="3270" width="200" height="40" style="fill:white;stroke:black;stroke-width:1" /><text x="1350" y="3280" font-size="10" style="fill:blue">xs:sequence</text><path d="M1320 3290 C1340 3290 1320 3290 1340 3290" style="fill:transparent;stroke:black" /><rect x="1560" y="3270" width="200" height="40" style="fill:white;stroke:black;stroke-width:1" /><text x="1570" y="3280" font-size="10" style="fill:blue">xs:element</text><path d="M1540 3290 C1560 3290 1540 3290 1560 3290" style="fill:transparent;stroke:black" /><text x="1570" y="3290" font-size="8" style="fill:black">name: clasificacion_participante</text><text x="1570" y="3300" font-size="8" style="fill:black">minOccurs: 3</text><text x="1570" y="3310" font-size="8" style="fill:black">maxOccurs: 3</text><rect x="1780" y="3270" width="200" height="40" style="fill:white;stroke:black;stroke-width:1" /><text x="1790" y="3280" font-size="10" style="fill:blue">xs:complexType</text><path d="M1760 3290 C1780 3290 1760 3290 1780 3290" style="fill:transparent;stroke:black" /><rect x="2000" y="3270" width="200" height="40" style="fill:white;stroke:black;stroke-width:1" /><text x="2010" y="3280" font-size="10" style="fill:blue">xs:sequence</text><path d="M1980 3290 C2000 3290 1980 3290 2000 3290" style="fill:transparent;stroke:black" /><rect x="2220" y="3270" width="200" height="40" style="fill:white;stroke:black;stroke-width:1" /><text x="2230" y="3280" font-size="10" style="fill:blue">xs:element</text><path d="M2200 3290 C2220 3290 2200 3290 2220 3290" style="fill:transparent;stroke:black" /><text x="2230" y="3290" font-size="8" style="fill:black">name: nombre</text><text x="2230" y="3300" font-size="8" style="fill:black">type: xs:string</text><rect x="2220" y="3320" width="200" height="40" style="fill:white;stroke:black;stroke-width:1" /><text x="2230" y="3330" font-size="10" style="fill:blue">xs:element</text><path d="M2200 3290 C2220 3290 2200 3340 2220 3340" style="fill:transparent;stroke:black" /><text x="2230" y="3340" font-size="8" style="fill:black">name: puntos</text><text x="2230" y="3350" font-size="8" style="fill:black">type: xs:integer</text></svg>